<svg xmlns="http://www.w3.org/2000/svg" width="1200" height="750" viewBox="0 0 1200 750">
  <defs>
    <linearGradient id="bg" x1="0" y1="0" x2="1" y2="1">
      <stop offset="0" stop-color="#8DFF69" stop-opacity="0.32"/>
      <stop offset="0.55" stop-color="#ffffff" stop-opacity="0.06"/>
      <stop offset="1" stop-color="#000000" stop-opacity="0"/>
    </linearGradient>
    <radialGradient id="glow" cx="30%" cy="25%" r="70%">
      <stop offset="0" stop-color="#8DFF69" stop-opacity="0.35"/>
      <stop offset="1" stop-color="#8DFF69" stop-opacity="0"/>
    </radialGradient>
  </defs>
  <rect width="1200" height="750" fill="#050505"/>
  <rect width="1200" height="750" fill="url(#bg)"/>
  <circle cx="320" cy="180" r="420" fill="url(#glow)"/>
  <rect x="90" y="90" width="1020" height="570" rx="36" fill="rgba(255,255,255,0.04)" stroke="rgba(255,255,255,0.12)"/>
  <rect x="130" y="150" width="460" height="32" rx="16" fill="rgba(255,255,255,0.10)"/>
  <rect x="130" y="210" width="720" height="18" rx="9" fill="rgba(255,255,255,0.08)"/>
  <rect x="130" y="242" width="640" height="18" rx="9" fill="rgba(255,255,255,0.06)"/>
  <rect x="130" y="274" width="560" height="18" rx="9" fill="rgba(255,255,255,0.06)"/>
  <g opacity="0.9">
    <rect x="130" y="330" width="160" height="120" rx="24" fill="rgba(141,255,105,0.14)" stroke="rgba(141,255,105,0.25)"/>
    <rect x="310" y="330" width="160" height="120" rx="24" fill="rgba(255,255,255,0.05)" stroke="rgba(255,255,255,0.10)"/>
    <rect x="490" y="330" width="160" height="120" rx="24" fill="rgba(255,255,255,0.05)" stroke="rgba(255,255,255,0.10)"/>
    <rect x="670" y="330" width="160" height="120" rx="24" fill="rgba(255,255,255,0.05)" stroke="rgba(255,255,255,0.10)"/>
  </g>
  <text x="130" y="560" fill="#ffffff" font-family="Urbanist, system-ui, -apple-system, Segoe UI, Roboto, Arial" font-size="54" font-weight="700">Component Library</text>
  <text x="130" y="605" fill="rgba(255,255,255,0.70)" font-family="Urbanist, system-ui, -apple-system, Segoe UI, Roboto, Arial" font-size="22">React • Tailwind • Modern UI</text>
  <text x="1040" y="610" fill="rgba(255,255,255,0.35)" font-family="Urbanist, system-ui, -apple-system, Segoe UI, Roboto, Arial" font-size="16" text-anchor="end">Project 1</text>
</svg>
